<mxfile host="app.diagrams.net" modified="2023-10-19T12:48:34.300Z" agent="Mozilla/5.0 (Windows NT 10.0; Win64; x64) AppleWebKit/537.36 (KHTML, like Gecko) Chrome/109.0.0.0 Safari/537.36" version="22.0.5" etag="QN12ET6BDD8neAa2Dapv" type="github">
  <diagram name="Page-1" id="kZ7fj0a7rr6ocgOcPRKU">
    <mxGraphModel>
      <root>
        <mxCell id="0" />
        <mxCell id="1" parent="0" />
      </root>
    </mxGraphModel>
  </diagram>
</mxfile>
